<mxfile host="drawio-plugin" modified="2021-09-11T22:51:29.517Z" agent="5.0 (Macintosh; Intel Mac OS X 11_5_2) AppleWebKit/537.36 (KHTML, like Gecko) Chrome/89.0.4389.90 Safari/537.36" etag="A28NGs-T2m4wfc_xZuEU" version="14.7.4" type="embed"><diagram id="aYdUcQgz4IrUA9PP73M9" name="Page-1"><mxGraphModel dx="3227" dy="1167" grid="1" gridSize="10" guides="1" tooltips="1" connect="1" arrows="1" fold="1" page="1" pageScale="1" pageWidth="827" pageHeight="1169" background="none" math="0" shadow="0"><root><mxCell id="0"/><mxCell id="1" parent="0"/><mxCell id="nN7Ici15l9d-5JEWvf5l-5" value="" style="rounded=1;whiteSpace=wrap;html=1;fillColor=#f5f5f5;strokeColor=#666666;fontColor=#333333;" parent="1" vertex="1"><mxGeometry x="59" y="480" width="470" height="590" as="geometry"/></mxCell><mxCell id="nN7Ici15l9d-5JEWvf5l-6" value="" style="ellipse;whiteSpace=wrap;html=1;aspect=fixed;strokeWidth=3;" parent="1" vertex="1"><mxGeometry x="224" y="420" width="139.32" height="139.32" as="geometry"/></mxCell><mxCell id="nN7Ici15l9d-5JEWvf5l-8" value="" style="ellipse;whiteSpace=wrap;html=1;aspect=fixed;strokeWidth=3;" parent="1" vertex="1"><mxGeometry x="224.33999999999992" y="705.34" width="139.32" height="139.32" as="geometry"/></mxCell><mxCell id="nN7Ici15l9d-5JEWvf5l-10" value="" style="shape=image;imageAspect=0;aspect=fixed;verticalLabelPosition=bottom;verticalAlign=top;fillColor=#E6E6E6;image=data:image/svg+xml,PHN2ZyB4bWxucz0iaHR0cDovL3d3dy53My5vcmcvMjAwMC9zdmciIHZpZXdCb3g9IjExLjI0Njc2MzIyOTM3MDExNyAxMi4zOTI3ODUwNzIzMjY2NiAxMTEuMDY1NDYwMjA1MDc4MTIgOTkuMDg3MjExNjA4ODg2NzIiIHdpZHRoPSIxMTEuMDY1NDYwMjA1MDc4MTIiIGhlaWdodD0iOTkuMDg3MjExNjA4ODg2NzIiPjxwYXRoIGZpbGw9IiMwMTAxMDEiIGQ9Ik00NC40NCAxMDAuNjNjLTQuMjMtMy4zMy04Ljc0LTYuNTItMTEuODMtMTEuMDEtNi40OS03LjkyLTExLjQ5LTE3LjEtMTQuOS0yNi43NC0yLjA3LTYuMjctMi43Ny0xMi45OS01LjQ0LTE5LjAyLTIuNzgtNC4zOC40OC05LjE2IDUuMjctMTAuNTUgMi4xMy0uNDEgNS44OS0yLjQzIDEuMzYtLjk4LTQuMDYgMi45OC00LjQ1LTIuNzEtLjI5LTMuMDcgMi44NC0uMzggMy44OS0yLjcgMi45Mi00LjgtMy4wNS0xLjk5IDcuNC00LjE4IDIuMTQtNy4xNS01LjQ4LTUuOTEgNy42Ni03LjA1IDQuNDItLjMzLS43NyA1LjE2IDkuMTgtLjk1IDYuODcgNS4wMSAyLjM1IDIuODYgOC44LjY1IDguNjMgNC42NyAzLjQyLjI0IDQuNiAzLjExIDcuOCAzLjMzIDMuMzMgMS41IDkuMzYgMi42OSAxMC40OSA2LjQ0LTMuMyAyLjYxLTEwLjk1LTUuNC0xMS4zMSAxLjg0IDEgMTAuNjkuNzQgMjEuNyA0LjY1IDMxLjg4IDEuODUgNi4xNiA2LjMzIDExLjAxIDEwLjM4IDE1LjgxIDMuODggNC43IDkuMTIgOC4wMSAxNC40OCAxMC44IDQuNjkgMi4yMSA5Ljc1IDMuNjggMTQuODcgNC42IDIuMDctMS41OSA1Ljc0LTcuNDggOC45Ny01IC4xNiAyLjgtNi40MiA1Ljg0LS4zMSA1LjU0IDMuNTktMS4wOCA2LjA4IDIuNzcgOS4wNC0uNzEgMi43MiAzLjIzIDExLjMyLTIuMDYgOS4zOCA0LjUzLTIuNjIgMS42OS02LjQ0LjY3LTkuMDcgMy00LjMzLTIuMTYtNy43NyAxLjkzLTEyLjU2IDEuNDItNS4zMi45NS0xMC43MyAxLjM0LTE2LjEzIDEuMzQtOC44NS0uNy0xNy44OS0uOTktMjYuMy00LjA3LTQuNzQtMS4zOC05LjM3LTQuMDgtMTMuNTMtNi43OHptNy40NyAzLjI0YzQuNjMgMiA5LjE2IDQuMTEgMTQuMjMgNC43NSA4LjA1IDEuMTIgMTYuMzcgMi44NCAyNC40NSAxLjI3LTMuNjYtMS42NS03LjQ0LjY0LTExLjA4LTEuMTgtNC4zNy45NC05LjA2LS4yNC0xMy41LS44Mi01LjA1LTIuMjUtMTAuNS0zLjgtMTUuMjMtNi43Mi01LjkxLTIuMTYgMy4wNiAyLjc3IDQuNjUgMy4xNyAzLjY5IDIuMS00LjA2LTEuMDgtNS4xNi0xLjk1LTMuMDktMS43NC0zLjQ5LTEuMzctLjMxLjM5LjY0LjM3IDEuMjguNzcgMS45NSAxLjA5em0tOC44MS02LjIzYzQuNDkgMS42Ni0uMDItMy4xNi0yLjA3LTIuODgtLjkxLTEuNTgtMy40OC0yLjU4LTEuNjctMy40My0zLjI2IDEuMTMtMy40Mi00LjMtNC45NS0zLjUzLTMuNDUtMS4wOS0xLjM0LTQuOTUtNS40NS03LjMyLS4zNy0yLjUtNC4wOC00LjY2LTUuMjYtOC40My0uNTItMS45My00LjE5LTcuNDYtMS45NC0yLjMxIDEuOTIgNC45NiA1LjI5IDkuMjEgOC4xIDEzLjQ1IDIuMTggNC4wNCA0Ljc2IDguMjYgOC43MiAxMC43OCAxLjM0IDEuMyAyLjYzIDMuMjcgNC41MiAzLjY3ek0zMC4xNyA4My40NWMuMTYtLjY4LjgyIDEuNDYgMCAwem0xOC4zIDE2LjE4YzEtLjQ0LTEuNDMtLjU2IDAgMHptMi40NC44OWMtLjI1LTEuMjMtMS4xMS42OSAwIDB6bTMuMDUgMS4yN2MxLjQ1LTEuMzgtMi4yNC0uODcgMCAwem01LjIyIDIuOTFjLjg5LTEuMy0yLjgyLS40OSAwIDB6bS0xMC4wMy02Ljk5YzIuMjUtMS40Ni0yLjkxLS4wMiAwIDB6bTIuMjkgMS4xNGMtLjA3LS43Ny0uODIuMzQgMCAwem0xMS40MyA3LjEzYzEuODQgMS4xNiAxMC43MyAyLjU0IDUuMTYuNDgtLjkzLjItMTAuMzMtMi42Ni01LjE2LS40OHpNNDQuNzIgOTEuODVjLS4xOC0uNzctMi44NS0uODUgMCAwem01LjMyIDMuMWMxLjM5LS45Ni0yLjg3LS43NCAwIDB6bTQuNDggMi43NWMxLjk4LS43NS0zLjIzLS43NSAwIDB6bS0xMS45Ny04LjIxYzIuMTYgMS42NSA4LjcuMjEgMy4zLS45OS0yLjQ1LTEuMzEtNy45OS0yLjItNC4yMi43OWwuOTIuMnptMTUgOS4xNmMuOS0xLjUzLTMuNzctLjg4IDAgMHptLTQuNTYtMy42M2M1LjI3IDEuNDktNC40My0zLjM0LTEuMy0uNTVsLjcuMzIuNi4yM3ptOS4xNCA1LjI4YzQuOTkuMDUtNC41MS0uNjggMCAwem0tMjEuNS0xMy43Yy0uMTktLjkzLTEuMjMuMDggMCAwem0yOS45NCAxOC40NGMuMTQtMS42OC0xLjYyIDEuMjUgMCAwek00OS4xNSA5MS44MmMtLjMtLjg4LTEuNTYtLjA0IDAgMHptLTguMDQtNS44YzIuODYtLjE3LTMuOTMtMS4yNiAwIDB6bS05LjU0LTYuMTZjLS4zNi0xLjM4LTMuMTItMi40NyAwIDB6TTU2LjYgOTUuNzRjLS41Mi0uNi0uMjUuMTMgMCAwem0xNS41OCA5LjU2Yy0uMDUtLjkxLS44NS4zNSAwIDB6TTU1LjIyIDk0LjMyYy4yOC0xLjE4LTIuNDQtLjM2IDAgMHptLTExLjYtNy4zNmMyLjEzLS4yMy0zLjQyLTEuNDQgMCAwem0xOS42MyAxMi4yYzMuMzItMS4zMi0zLjI0LS42NCAwIDB6bS0xMC4yMS02LjkzYzMuODMuNDktNC41Ni0yLjYxLS44NC0uMjhsLjg0LjI4em0xMy4zMSA4LjE5YzMuNTgtMi4xNCAyLjQgNS4wMSA2LjA3LjYgMy42Mi0yLjY0LTMuMTMgMy4yNyAxLjMzLjQ3IDMuMjMtMi4xNiA3Ljk5IDEuMDIgMTEgMi4wNiAyLjE2LS4xMSA0LjI3IDEuODcgNi40OS42NyA0LjI3LTEuMTUtOC4zNi0xLjcxLTUuMDUtMy43NS0zLjkxIDEuMTQtNi44LTEuMzYtOC43Mi0zLjg2LTQuMzktMS4wMS05LjQ2LTMuMjUtMTEuNjUtNy4xNC0uODktMS40NiAxLjI5LjIxLS43Ny0yLjE4LTIuNjQtMi4zNS0zLjk2LTUuMDItNS43My03Ljg4LTIuMTItMS4xMy0yLjM3LTQuNDYtMi41OC0uMTEuMDItMi43NC0yLjU2LTQuNTktMy4xOS0zLjgyLS4wMS0yLjY0IDIuNzYtMS4zMi44Mi0zLjI3LS40Mi0yLjc0LTEuNzktNS41OS0yLjItOC42OC0uNjQtMS40OS0uMDktNC42OC0yLjE5LTEuMzEtLjc2IDMuNTctLjI1LTQuMzguOTQtMS43NiAxLjU2LTIuNjctLjU2LTIuMzYtLjY1LTEuOTkgMS4wMi0yLjI2LjY0LTUuNDYtLjI3LTQuMjQuNTQtMi4zOS44Ni04LjgtLjgxLTcuNjYgMS4wMS0yLjUgMS45Mi0xMS40NC0yLjQ3LTguMDMtMS43OC4wMy00Ljg1LjY0LTYuMzEgMS4zNyA0LjU2IDIuNTEtLjQ2LjkxLTIuMzIuNTEtLjI0IDIuMzMtMi4wOCAxLjMyLTQuMzggMS4zNCAzLjY3LjQ1LTEuNzkgMy43NS0zLjg5IDIuNDctMi43NCAxLjMxIDIuMzYgNC41Ny4wNSA1LjU4LjI4IDEuNTItNC4xOS0uNTUtMy44NCAyLjk2LTIuNjUtMS4xMi0uMzYgNC4xNi45NiAyLjM4IDQuNTEgMS4yMiAzLjE4IDQuMDEgMy4yOSA2LjY1LS43NCAxLjU0LTMuNjMtMy42Mi0uNjQtMy4zOC0yLjM2LTMuODMtMi42MS0xLjM4LTQuNTYuMzktLjQ1LjEzIDQuOTkgMi41MyAxLjU3IDMuNzIgMy4wMS40NyAzLjEgMy4xIDMuNzEgNC43NiAxLjgxIDEuODggMS40NC0yLjA4IDMuNi4xOC0xLjM3LTIuMDItNy4yNS01LjY4LTIuNTItNC41MS0uMDMtMi4wMy0uODYtMy42Ny42LTMuNjMgMS40NC0yLjYtMS41MSA2LjQyIDEuNzMgMy4xMS45LS4zOSAxLjEyLTIuNiAyLjczLjIxIDIuMzQgMi4zLjg1IDMuOTctMi40NiAxLjg2LjU5IDIuMDEgNC40MiAyLjcyIDMuNyA1Ljg2Ljc2IDIuNzYgMS44MyAxLjc0IDIuNzYgMS41OC43MyAyLjY4IDEuMTQuNzEgMS4xOC0uNTcgMy4zNC43MiAyLjU2IDIuNjkgMy42IDQuMDcgMi4zIDEuMDQtMy4yOS03LjA0LjY2LTIuNDMgNC4xNiAzLjc1IDEuNTYgNS4zMi0yLjE3IDQuNzIgMi4zNi0uMTkgMy4xMiAzLjE5IDYuMDcgMy4wNyAyLjY5IDEuMjggNC41MiA2LjItLjEyIDQuMTUtMS42MS0xLjQ1LTcuMzEtMy4yNC0yLjY1LS40OCA0LjMgMS45OSA3LjcxIDMuMTggMTEuODYgNS42OCAyLjk2IDIuMTIgNC4yNSA0LjU0IDUuMzcgNS4wMi0yLjQ5IDEuMTktNy41MS0uOTUtMy43OC0xLjYxLTIuMzMtLjQyLTQuOTQtMS42LTIuNzEgMS4zIDEuODkgMS41OCA2LjcxIDEuNDIgNy41OCAxLjU5LS43MyAxLjYxLTEuOTkgMS43NC4wMyAxLjg2LTIuMjUgMS4yMi43MiAxLjQxLjkzIDIuMXptLTQuNi0xM2MtMS4zNy0xLjQzLTEuNzItNC4xMS0uMjQtMS43OC43NS4zIDIuNDMgNC4zOC4yNCAxLjc4em0xNC45OSA5LjUyYy44NS0uMDYuMDIuNjUgMCAwek01OS41OSA4My45MWMtLjA2LTIuMTcuNDkgMS42NyAwIDB6TTU4LjEgODEuOWMtMS43My0zLjMyIDIuMTcuOTUgMCAwek00MC4wNCA2OS40NGMxLjAxLS4yNy41IDEuNzMgMCAwem0xNC4zNyA3Ljc5Yy42Mi0yLjMzLjczIDEuOTYgMCAwem0tMTAuMTUtNy4wNmMtLjcxLTEuMjkgMS41IDEuMjEgMCAwem04LjcxIDIuNzljLTEuNjMtMy42NSAxLjE2LTIgLjM2LjZsLS4zNi0uNnpNMzcuOTUgNjIuOTVjLS43My0xLjItMS45My00LjcyLTEuNTUtNS43OS4zNSAxLjc1IDMuNzIgNy41MyAxLjY1IDIuMzktMi4yOC00LjMgMi43MyAxLjQgMy4yNSAyLjQ3LjI0IDEuMDctMS40MS0uMjktLjI5IDIuMjEtMi4wNC0yLjg1LTEuMiAxLjU4LTMuMDYtMS4yOHptLTQuNjQtMy4yYy4xOS0yLjc5IDEuMDYgMS45MSAwIDB6bTIuMDguNzJjMS0yLjExIDEuNjkgMi45MyAwIDB6bS01LjAyLTMuODljLTEuNzMtMS43Mi0yLjk4LTMuMy4wOC0xLjA3IDEuMTguMDUtMi42Mi0zLjYuMjgtMS4xNiAzLjA2LjU2IDEuNTEgNS4wMS0uMzYgMi4yM3ptMi42NC0uMDdjMS0uOTkuNTMuOTggMCAwem0xLjYyLjUyYy0xLjUyLTIuODUgMS44NSAxLjIgMCAwem0tMy4yMi0zLjA4Yy01LjAyLTQuNDcgNi4zMSAyLjM0LjgyLjgzbC0uODItLjgzem0xNC4zOSA4LjM2Yy0yLjE4LTEuMy0uNTgtOS4xOC4xNi0zLjc5IDIuMTEtLjY4LS4xMiAyLjc4IDEuNDYgMi43NS0uMjQgMi4xOC0uOTUgMi45Ny0xLjYyIDEuMDR6bTUuMzMgMy4xNWMuMjEtMi4zOC40NSAxLjYyIDAgMHptLS45My0uOTJjLjI0LTEuMDEuMDMgMS4yIDAgMHpNMzIuMzkgNTIuNDhjLTMuMjMtNC40NSA5LjM4IDQuNTEgMi4wNyAxLjEzLS43Ny0uMjEtMS42OS0uMjgtMi4wNy0xLjEzem0xMC4yNiA1LjQzYy0uMzEtMy43NS42OC42MiAwIDB6bTcuNzggNWMuNi0yLjE0LjA1IDEuNDEgMCAwek0zMi44OSA1MC43OGMxLjkyLS40MSA3Ljk1IDMuMzcgMi40MSAxLjA4LS42Mi0uNjktMS45My0uMzgtMi40MS0xLjA4em0xNi40NyA4LjIxYy4yLTMuODQgMS4xNS0yLjI5LjAxLjU1bC0uMDEtLjU1em0tMTUuMDUtOS41NWMuNzgtMS4xNS0yLjA4LTUuMTguNDEtMS40NSAxLjA4Ljg1IDMuMTEgMS40MyAxLjMxIDEuNzkgMi44NCAyLjUtLjY4LjY4LTEuNzItLjM0em0xNC4yNCA4LjM1Yy41NC00LjM3LjQ3IDIuNTYgMCAwek0zMi42OCA0NS40MWMuNi0uMjYuMzIuNzkgMCAwem0zLjcxIDIuMjFjLjk2LTIuMDEgMS43NyAyLjIzIDAgMHptMTAuNDcgNS44MmMwLS43Ny4yIDEuMTIgMCAwem0tLjYtMS4zNGMtMS40NS0zLjU5IDEuMzUgMS45IDAgMHptLS44OS0yLjM1Yy0uMjUtMS40OC44MyAxLjg2IDAgMHptMS40NS0yLjM2Yy0xLTEuNzYgMS4yNi03Ljc1IDEuNTEtNC4wMy0xLjA1IDIuODktLjMgNC41MS40My42MyAxLjM2LTMuMDYtLjI5IDYuMDItMS45NCAzLjR6bTEuNDktOC45MWMuNDQtLjUzLjEuNjUgMCAwek00NS44MiA4Ny42Yy0uNTktLjUyLjA3LjMzIDAgMHptNS4xMyAyLjZjMi44Ni43NCAyLjg0LS40NC4yNi0uNzktMS4zOS0xLjI5LTUuNzctMi42Ni0xLjg1LS4xNi4yNy42NSAxLjA5LjYzIDEuNTkuOTV6bS0xMC4xNC02Ljc0YzEuNTcgMS4xOCA1LjkzIDMuMzIgMi4yNC40NSAxLjI0LTEuNDQtMi4zOC0yLjIxLTEuMTgtMy4xOC0zLjA2LTEuODctMi40MS0xLjctLjI3LTEuNjQtMy42Ny0xLjY0LjUzLTEuNTIuMzMtMi4zNi0xLjQyLS4yOC03LjAzLTIuNS0zLjczLjE4LTMuMzYtMS43MS0uOC42NC0xLjgyLjM5LTMuNDQtLjk0IDMuMDYgMi42Mi0uNTQgMS43MyAxLjk3IDEuNTYgNS4zIDQgLjgzIDEuNjUtLjU3Ljg1IDMuMjEgMi4xNCA0LjE0IDIuNzh6bTUuMzcgMy4wOWM2LjUzIDIuMS0zLjItMi41OCAwIDB6bTI3LjUgMTYuNjVjLjA4LTEuMy0uOSAxLjExIDAgMHptMi44MiAxLjE5YzEuNTEtMS40Ni4wNiAyLjMzIDIuNS0uMzYuMDMtMS45Mi0uMDctMy4wNi0yLjgtLjcyLS43NS40Mi0xLjA5IDIuMTkuMyAxLjA4ek0zMS42NSA3Ni4yMmMtLjQ3LTEuODItMy4yNS0xLjgxIDAgMHptMy4wMSAxLjk4Yy0xLjEyLTEuODYtNC0xLjY4IDAgMHptMTcuMTcgMTAuMzVjMS42OCAxLjQ5IDcuNyAxLjA5IDIuMDMuMTgtLjgzLTEuMjQtNS4zMi0uOTQtMi4wMy0uMTh6bTIzLjYgMTQuNTdjMi41Ny0yLjE2LTIuNS45NyAwIDB6bTUuMzYgMy42OWMuMDItLjY5LTEuMTEuMyAwIDB6bS4wMS0uOTdjMi44Ni0zLjAzLTIuNzcuMTggMCAwek0yNC4yMiA3MC4wMWMtMi40My0zLjQ3LTEuNTEtNS4wMy0zLjg2LTcuODctLjQ1LTIuMTctNC4wMy03LjA5LTEuODUtMS44OCAxLjk5IDMuMDUgMi41OCA3Ljc3IDUuNzEgOS43NXptNTUuNjggMzQuODdjNS4yNi0zLjQtMi4xNS0xLjQ4IDAgMHptNC4wMSAxLjU3YzIuNjQtMi4yNi0xLjY2LS40NyAwIDB6TTMwLjc1IDcyLjM4Yy43Ni0xLjEyLTEuOTQtLjE0IDAgMHptNTIuMzMgMzIuOTljMi41NS0xLjY0LS41OS0xLjM5LS40Ni4xNWwuNDYtLjE1ek00OC41IDgzLjU4Yy0uMDktMS4xMS0xLjM1LjA5IDAgMHptMi4xNCAxLjIzYy0uNjktMS4zOC0xLjA1LjIxIDAgMHptMzYuNTMgMjEuNjdjMy4yNy0yLjM2LTEuOTgtLjQ1LS42OC40NWwuNjgtLjQ1em0tMS4yNi0uNmMyLjY3LTIuMjMtMi44Ljk5IDAgMHptNi4zOSA0LjI1YzEuNzktMS4xOS0yLjE3LS4zOCAwIDB6TTMyLjM5IDcxLjU3YzIuMzkuNTQgOS41NiA1Ljg5IDUuMzMuMzctMi4xNy0uNjQtLjg3LTUuOTQtMy4wOC01IDEuNDggMi40OCAxLjIyIDMuNTMtMS45IDEuOTctMy45MS0xLjkxLTIuMi45NC0xLjQzIDEuNzMtMS4wNC4yNSAxLjM5LjkxIDEuMDguOTN6bS0xMC45LTguNjFjLjQzLTEuNzctMy45NS05Ljc1LTIuMDctNCAuNjggMS4yMS42MSAzLjQ5IDIuMDcgNHpNNDEuNSA3NS4zYy0xLjIzLTEuMDMtLjA2LS4xNSAwIDB6bTMuMDMuNzFjMC0xLjg4LTMuMzUtLjc3IDAgMHptMjYuMyAxNi41N2MtLjUtMS4yOC0xLjk4LS4wMiAwIDB6bTEuMjYuOTNjLS4xOC0uNzItLjcyLjE0IDAgMHptMTAuNDMgNi41NmMxLS43NC0xLjI1LS4wOSAwIDB6TTI2LjkzIDY0LjM1YzIuODctMS4xMS0zLjA3LS43OSAwIDB6bTQxLjU5IDI2LjJjLS4wNC0xLjg2LTEuODMuNDYgMCAwek0yNS44IDYxLjcxYzEuODQtLjYyLTEuNzEtLjQxIDAgMHptNS4zNCAyLjU5Yy0uMDMtLjYxLS41Ni4yMyAwIDB6bTY1LjIyIDM5Ljk5YzIuMzctLjQ4IDcuNzcgMS4yMSA4LjY0LS42My0yLjg4LS4wNy05Ljk1LTIuMDMtMTAuMjguNDZsLjYzLjEgMS4wMS4wN3pNMzIuODQgNjQuNzNjLjA1LTEuODgtMS40Ni0uMDcgMCAwem0tMTQuMDUtOS43NWMtLjY0LTMuNTgtMi40My0uNTQgMCAwem0zLjM1Ljg0Yy4wNC0xLjE1LTMuMDctMS4wMyAwIDB6bTEuOTEuOTRjLS41NS0uNDQtLjQzLjU3IDAgMHptMTIuMDYgNy43M2MuNTctLjUyLTEuMzUtLjM4IDAgMHptLTEzLjMzLTkuODVjLS4zMy0yLjcxLTMuODgtLjQgMCAwem0tNi44Ny00LjQ2Yy0uMS0xLjI1LS42Ny40NyAwIDB6bTEuMDItLjc3Yy0uMTctMS40OC0uODguMTkgMCAwem01LjY1IDMuMzdjMi4zOS0uOTQtNC4zNS0xLjk0LS40OS0uMThsLjQ5LjE4em03NS41OSA0Ni42OWMxLjUzLTEuNC0xLjk0LS40MyAwIDB6bTkuMTMgNC43NGMuNjEtMS44MS0xLjU0LjIzIDAgMHpNMjMuMTUgNDkuODJjLjI2LTEuNzUtMS44OS4zNSAwIDB6bS04LjAzLTUuMzhjLS40My0yLjQ3LS4zNy02LjgyIDMuNzYtNS4zNS01LjUxIDEuMSAzLjgyIDYuODUgMi42NCAyLjMxIDIuMzIuMTEgNC41My0xLjM3IDMuMzIuODggNC41Ny0uNSA3LjczLTQuNDYgMTIuMTQtMy45MSAzLjQ0LS40NiA3LjE5LS44IDEwLjg5LTIuMTggMy4wNC0uMjIgNS45Ny0zLjUgNC4zMS01LjQ0LTQuMTUtLjM1LTguNS4xNy0xMy4wOCAxLjA4LTUuMDggMS4wNi05LjcgMy4wNi0xNC44MyAzLjkzLTUgLjY3IDEgMS44NS0uNDMgMi4xMS0yLjYxLjkgMy4xMSAxLjUyLS4zNCAyLjQ3LTIuMTMtLjQxLTQuMzUtMS4xNC0zLjQ0LTMuMzgtNC43OS42Mi05IDIuNjEtNS4yMSA3LjQ4aC4yN3ptMTEuNTQtNS44OGMxLjEyLTQuMTQgNi4wMSAzLjQgMS44NC41NS0uNS0uMzgtMS4zMi0uNjgtMS44NC0uNTV6bS4yMi0yLjAxYzEuNjItMS4yLjg2LjY4IDAgMHptMi4wNi4wNGMuMTUtMS45IDQuNzEgMS4wMS43NS42OGwtLjc1LS42OHptMi44MS0xLjE0YzEuMDMtMS4yLjMgMS4wNyAwIDB6bS43Mi0uNDhjMS43MS0yLjA2IDkuNjktMS4zMSAzLjg1LS4yLTEuNTYtMS4xOC0yLjc2LjctMy44NS4yem0xMC40Mi0xLjZjLS4yNi01LjYyIDUuMTggMS45OSAwIDB6bTIuOTYtLjAyYzEuMDgtMi44MyA0LjItMS4xNC41LS41Ny4wOC4zLS4xMSAxLjQ2LS41LjU3ek0yMS45OSA0OC4zN2MzLjIzLTEuOTgtMy40My0xLjcyIDAgMHptMi4zOS42NmMxLjEzLTEuMi0yLjQ2LS40OSAwIDB6bS03LjA0LTQuOTljMS44NS0xLjQyLTIuMTgtLjU0IDAgMHptOTUuMzUgNTkuNjVjLjA1LTEuNjUtMS40MS43NCAwIDB6TTEwMyA5Ny4wOGMuMjgtMS45LTEuMjQuMTYgMCAwem0xMi4zNiA3LjI1YzIuNTguMDEgNy44Mi0uOCAyLjItLjgtLjg4LjEzLTUuMTMuMTEtMi4yLjh6TTI2LjQ4IDQ3Ljg3YzIuMDktLjE0IDMuMjctMi4zLS40MS0yLjE4LTUuNjktLjU5IDUuMDIgMS45NS0uNzMgMS4yMi0uNzcuNTEgMS4wOSAxLjEgMS4xNC45NnptMS44NC45M2MtLjIyLTEuMzQtLjY1LjcxIDAgMHptMi4xOC01LjgyYy45LTEuMTItMS4yNi0uMyAwIDB6bS02Ljk1LTExLjZjMy43My0xLjI3IDguODItMi42OSAxMC41OC42Mi0xLjc5LTIuMTUtLjcyLTQuMjguOTctMS4xMiAyLjM5IDMuMTkgMy41OS0xLjQ1IDIuMDMtMi41MiAxLjc3IDIuMiAzLjc5IDMuMjQgMS4xOS4xNCAyLjgzLTMuNC01LjY2LjQ1LTcuNTkuNDEtLjkyLjQxLTkuNTggMi4yLTcuMTggMi40N3ptMi4xOS00LjE4YzIuMTMtMS42IDcuMzUuOTYgNC0xLjU5LS4zMy0uMy03LjM1IDEuOTMtNCAxLjU5em03Ljc1LjMyYzIuNDkuMDYtMS4wNy0zLjM0IDEuODktMS44LS40OS0xLjU5LTMuNDUtMS44OS00LjktMi41Mi0uODIgMS40NSAxLjY2IDQuMzQgMy4wMSA0LjMyem0tNi4zOS03LjA0Yy44Ni0xLjE2LTEuNTEuNiAwIDB6bTMuMTYuNzZjNC4wMS0uNTMtMS4wMi0xLjcyLS44MS0uMDRsLjgxLjA0em0tNS45MS00LjYyYy0yLjgyLTMuNjkgNS4zMS42MiAyLjQ0LTMuMjQtMi40MS0xLjkyLTQuNzMgMi4xNi0yLjQ0IDMuMjR6bTM2LjIxIDE5LjVjMS4yOS0yLjI5LTUuMzQtMy4wOS0uODctLjgxLjQyLjE0LjMyLjk3Ljg3LjgxeiIvPjwvc3ZnPg==;" parent="1" vertex="1"><mxGeometry x="243.66000000000008" y="730.1" width="100.68" height="89.8" as="geometry"/></mxCell><mxCell id="nN7Ici15l9d-5JEWvf5l-14" value="" style="endArrow=none;html=1;strokeWidth=3;" parent="1" edge="1"><mxGeometry width="50" height="50" relative="1" as="geometry"><mxPoint x="-40" y="705.3399999999999" as="sourcePoint"/><mxPoint x="-40" y="180" as="targetPoint"/></mxGeometry></mxCell><mxCell id="nN7Ici15l9d-5JEWvf5l-21" value="" style="endArrow=none;html=1;strokeWidth=3;" parent="1" edge="1"><mxGeometry width="50" height="50" relative="1" as="geometry"><mxPoint x="-40" y="1370" as="sourcePoint"/><mxPoint x="-40" y="844.66" as="targetPoint"/></mxGeometry></mxCell><mxCell id="nN7Ici15l9d-5JEWvf5l-23" value="CLOUD" style="text;html=1;strokeColor=none;fillColor=none;align=center;verticalAlign=middle;whiteSpace=wrap;rounded=0;strokeWidth=0;fontSize=30;fontColor=#4D4D4D;fontStyle=1" parent="1" vertex="1"><mxGeometry x="-40" y="181.51" width="180" height="100" as="geometry"/></mxCell><mxCell id="nN7Ici15l9d-5JEWvf5l-26" value="HEROKU" style="text;html=1;strokeColor=none;fillColor=none;align=center;verticalAlign=middle;whiteSpace=wrap;rounded=0;strokeWidth=0;fontSize=30;fontColor=#4D4D4D;" parent="1" vertex="1"><mxGeometry x="233" y="559.3199999999999" width="120.34" height="50.68" as="geometry"/></mxCell><mxCell id="nN7Ici15l9d-5JEWvf5l-27" value="FLASK WEB APP" style="text;html=1;strokeColor=none;fillColor=none;align=center;verticalAlign=middle;whiteSpace=wrap;rounded=0;strokeWidth=0;fontSize=30;fontColor=#4D4D4D;" parent="1" vertex="1"><mxGeometry x="221.66000000000008" y="844.66" width="145.67" height="85.34" as="geometry"/></mxCell><mxCell id="nN7Ici15l9d-5JEWvf5l-28" value="" style="endArrow=classic;startArrow=classic;html=1;fontSize=28;fontColor=#4D4D4D;exitX=1;exitY=0.5;exitDx=0;exitDy=0;endSize=15;sourcePerimeterSpacing=15;targetPerimeterSpacing=15;startSize=15;strokeWidth=3;" parent="1" edge="1"><mxGeometry width="50" height="50" relative="1" as="geometry"><mxPoint x="363.660000000001" y="755.0000000000002" as="sourcePoint"/><mxPoint x="960" y="570" as="targetPoint"/><Array as="points"><mxPoint x="660" y="755"/><mxPoint x="660" y="570"/></Array></mxGeometry></mxCell><mxCell id="nN7Ici15l9d-5JEWvf5l-30" value="" style="endArrow=classic;startArrow=classic;html=1;fontSize=28;fontColor=#4D4D4D;exitX=1;exitY=0.5;exitDx=0;exitDy=0;endSize=15;sourcePerimeterSpacing=15;targetPerimeterSpacing=15;startSize=15;strokeWidth=3;" parent="1" edge="1"><mxGeometry width="50" height="50" relative="1" as="geometry"><mxPoint x="363.660000000001" y="797.3300000000003" as="sourcePoint"/><mxPoint x="959.3399999999999" y="977.33" as="targetPoint"/><Array as="points"><mxPoint x="660" y="797.33"/><mxPoint x="659.3400000000001" y="977.33"/></Array></mxGeometry></mxCell><mxCell id="nN7Ici15l9d-5JEWvf5l-32" value="" style="ellipse;whiteSpace=wrap;html=1;aspect=fixed;strokeWidth=3;" parent="1" vertex="1"><mxGeometry x="960" y="500" width="139.32" height="139.32" as="geometry"/></mxCell><mxCell id="nN7Ici15l9d-5JEWvf5l-34" value="" style="ellipse;whiteSpace=wrap;html=1;aspect=fixed;strokeWidth=3;" parent="1" vertex="1"><mxGeometry x="960" y="910" width="139.32" height="139.32" as="geometry"/></mxCell><mxCell id="nN7Ici15l9d-5JEWvf5l-38" value="USER" style="text;html=1;strokeColor=none;fillColor=none;align=center;verticalAlign=middle;whiteSpace=wrap;rounded=0;strokeWidth=0;fontSize=30;fontColor=#4D4D4D;fontStyle=1" parent="1" vertex="1"><mxGeometry x="-210" y="181.51" width="170" height="100" as="geometry"/></mxCell><mxCell id="nN7Ici15l9d-5JEWvf5l-39" value="PORTFOLIO OPTIMIZER PACKAGE" style="text;html=1;strokeColor=none;fillColor=none;align=center;verticalAlign=middle;whiteSpace=wrap;rounded=0;strokeWidth=0;fontSize=30;fontColor=#4D4D4D;" parent="1" vertex="1"><mxGeometry x="851.7" y="1060" width="355.91" height="85.34" as="geometry"/></mxCell><mxCell id="nN7Ici15l9d-5JEWvf5l-40" value="YAHOO FINANCE API" style="text;html=1;strokeColor=none;fillColor=none;align=center;verticalAlign=middle;whiteSpace=wrap;rounded=0;strokeWidth=0;fontSize=30;fontColor=#4D4D4D;" parent="1" vertex="1"><mxGeometry x="881.3600000000001" y="644.7600000000001" width="296.59" height="85.34" as="geometry"/></mxCell><mxCell id="nN7Ici15l9d-5JEWvf5l-42" value="" style="ellipse;whiteSpace=wrap;html=1;aspect=fixed;strokeWidth=3;" parent="1" vertex="1"><mxGeometry x="-530" y="700" width="139.32" height="139.32" as="geometry"/></mxCell><mxCell id="nN7Ici15l9d-5JEWvf5l-44" value="" style="shape=actor;whiteSpace=wrap;html=1;fontSize=30;fontColor=#6600CC;strokeColor=#FFFFFF;strokeWidth=3;fillColor=#4D4D4D;" parent="1" vertex="1"><mxGeometry x="-495.43" y="724.49" width="70.17" height="90.34" as="geometry"/></mxCell><mxCell id="nN7Ici15l9d-5JEWvf5l-45" value="" style="endArrow=classic;startArrow=classic;html=1;fontSize=28;fontColor=#4D4D4D;endSize=15;sourcePerimeterSpacing=15;targetPerimeterSpacing=15;startSize=15;strokeWidth=3;" parent="1" edge="1"><mxGeometry width="50" height="50" relative="1" as="geometry"><mxPoint x="-385.65999999999997" y="774.24" as="sourcePoint"/><mxPoint x="224.34000000000003" y="774.24" as="targetPoint"/><Array as="points"><mxPoint x="-86.16999999999996" y="774"/></Array></mxGeometry></mxCell><mxCell id="nN7Ici15l9d-5JEWvf5l-46" value="USER" style="text;html=1;strokeColor=none;fillColor=none;align=center;verticalAlign=middle;whiteSpace=wrap;rounded=0;strokeWidth=0;fontSize=30;fontColor=#4D4D4D;" parent="1" vertex="1"><mxGeometry x="-520.51" y="844.6599999999999" width="120.34" height="50.68" as="geometry"/></mxCell><mxCell id="nN7Ici15l9d-5JEWvf5l-47" value="" style="shape=image;imageAspect=0;aspect=fixed;verticalLabelPosition=bottom;verticalAlign=top;fontSize=30;fontColor=#6600CC;strokeColor=#FFFFFF;strokeWidth=3;fillColor=#4D4D4D;gradientColor=none;image=data:image/svg+xml,PHN2ZyB4bWxucz0iaHR0cDovL3d3dy53My5vcmcvMjAwMC9zdmciIHhtbG5zOnhsaW5rPSJodHRwOi8vd3d3LnczLm9yZy8xOTk5L3hsaW5rIiB2ZXJzaW9uPSIxLjEiIHg9IjBweCIgeT0iMHB4IiB2aWV3Qm94PSIxIDEuNDM1NDk5OTA2NTM5OTE3IDYyIDYxLjEyOTAwMTYxNzQzMTY0IiBzdHlsZT0iZW5hYmxlLWJhY2tncm91bmQ6bmV3IDAgMCA2NCA2NDsiIHhtbDpzcGFjZT0icHJlc2VydmUiIHdpZHRoPSI2MiIgaGVpZ2h0PSI2MS4xMjkwMDE2MTc0MzE2NCI+JiN4YTs8ZyBpZD0iY3NzIj4mI3hhOzwvZz4mI3hhOzxnIGlkPSJtb2JpbGVfZGV2ZWxvcG1lbnQiPiYjeGE7PC9nPiYjeGE7PGcgaWQ9ImNvZGUiPiYjeGE7PC9nPiYjeGE7PGcgaWQ9ImhhcmR3YXJlX3Byb2dyYW1taW5nIj4mI3hhOzwvZz4mI3hhOzxnIGlkPSJweXRob24iPiYjeGE7PC9nPiYjeGE7PGcgaWQ9ImRldmVsb3BtZW50Ij4mI3hhOzwvZz4mI3hhOzxnIGlkPSJ1cGRhdGUiPiYjeGE7PC9nPiYjeGE7PGcgaWQ9Im1haW50ZW5hbmNlIj4mI3hhOzwvZz4mI3hhOzxnIGlkPSJwZWZvcm1hbmNlX3Rlc3RpbmciPiYjeGE7PC9nPiYjeGE7PGcgaWQ9InByb2dyYW1taW5nIj4mI3hhOzwvZz4mI3hhOzxnIGlkPSJoYWNrZXIiPiYjeGE7PC9nPiYjeGE7PGcgaWQ9IndlYl9wcm9ncmFtbWluZyI+JiN4YTs8L2c+JiN4YTs8ZyBpZD0iaHRtbCI+JiN4YTs8L2c+JiN4YTs8ZyBpZD0idHlwaW5nIj4mI3hhOzwvZz4mI3hhOzxnIGlkPSJzZWFyY2hfMV8iPiYjeGE7PC9nPiYjeGE7PGcgaWQ9ImFuZHJvaWQiPiYjeGE7PC9nPiYjeGE7PGcgaWQ9ImNvZGluZyI+JiN4YTs8L2c+JiN4YTs8ZyBpZD0iZmlsZSI+JiN4YTs8L2c+JiN4YTs8ZyBpZD0iYXBpIj4mI3hhOwk8Zz4mI3hhOwkJPHBhdGggZD0iTTU3LjczNjMsMTMuODk5NEg0Ni4wOTc3di0wLjY1NjdjMC0xLjA5NjctMC44OTE2LTEuOTg4OC0xLjk4ODMtMS45ODg4aC0wLjM4OTYmIzEwOyYjOTsmIzk7JiM5O2MtMC4xODI2LTAuNTU2Mi0wLjQwNzItMS4wOTY3LTAuNjcxOS0xLjYxNjdsMC4yNzY0LTAuMjc2NGMwLjM3Ny0wLjM3NywwLjU4NC0wLjg3ODksMC41ODMtMS40MTI2JiMxMDsmIzk7JiM5OyYjOTtjLTAuMDAxLTAuNTMyMi0wLjIwOS0xLjAzMTMtMC41ODMtMS40MDE0bC0yLjMzNC0yLjMzNGMtMC4zNzMtMC4zNzctMC44NzIxLTAuNTg1LTEuNDA0My0wLjU4NjRjLTAuMDAyLDAtMC4wMDI5LDAtMC4wMDQ5LDAmIzEwOyYjOTsmIzk7JiM5O2MtMC41MzIyLDAtMS4wMzIyLDAuMjA3LTEuNDA4MiwwLjU4M2wtMC4yNzY0LDAuMjc2NGMtMC41MTk1LTAuMjY0Mi0xLjA1OTYtMC40ODgzLTEuNjE2Mi0wLjY3MTRWMy40MjQzJiMxMDsmIzk7JiM5OyYjOTtjMC0xLjA5NjctMC44OTI2LTEuOTg4OC0xLjk4OTMtMS45ODg4aC0zLjMwOTZjLTEuMDk2NywwLTEuOTg4MywwLjg5MjEtMS45ODgzLDEuOTg4OHYwLjM5MDEmIzEwOyYjOTsmIzk7JiM5O2MtMC41NTU3LDAuMTgyNi0xLjA5NjcsMC40MDcyLTEuNjE3MiwwLjY3MTRsLTAuMjc2NC0wLjI3NjRjLTAuMzc2LTAuMzc2LTAuODc2LTAuNTgzLTEuNDA4Mi0wLjU4M2MtMC4wMDIsMC0wLjAwMjksMC0wLjAwNDksMCYjMTA7JiM5OyYjOTsmIzk7Yy0wLjUzMjIsMC4wMDE1LTEuMDMxMywwLjIwOTUtMS40MDA0LDAuNTgzbC0yLjMzNCwyLjMzNGMtMC4zNzcsMC4zNzM1LTAuNTg1LDAuODcyNi0wLjU4NTksMS40MDQ4JiMxMDsmIzk7JiM5OyYjOTtjLTAuMDAxLDAuNTMzNywwLjIwNjEsMS4wMzU2LDAuNTgzLDEuNDEyNmwwLjI3NjQsMC4yNzY0Yy0wLjI2NDYsMC41Mi0wLjQ4OTMsMS4wNjA1LTAuNjcxOSwxLjYxNjdoLTAuMzg5NiYjMTA7JiM5OyYjOTsmIzk7Yy0xLjA5NjcsMC0xLjk4OTMsMC44OTIxLTEuOTg5MywxLjk4ODh2MC42NTY3SDYuMjYwN0MzLjM2MDQsMTMuODk5NCwxLDE2LjI1OTMsMSwxOS4xNTk3djMwLjY2OTkmIzEwOyYjOTsmIzk7JiM5O2MwLDIuOTAyOCwyLjM2MDQsNS4yNjQyLDUuMjYwNyw1LjI2NDJoMTguNDk1MXY1LjQ3MDdIMTcuODM0Yy0wLjU1MjcsMC0xLDAuNDQ3OC0xLDFzMC40NDczLDEsMSwxaDI4LjM0ODZjMC41NTI3LDAsMS0wLjQ0NzgsMS0xJiMxMDsmIzk7JiM5OyYjOTtzLTAuNDQ3My0xLTEtMWgtNi45MjU4di01LjQ3MDdoMTguNDc5NWMyLjkwMjMsMCw1LjI2MzctMi4zNjEzLDUuMjYzNy01LjI2NDJWMTkuMTU5NyYjMTA7JiM5OyYjOTsmIzk7QzYzLDE2LjI1OTMsNjAuNjM4NywxMy44OTk0LDU3LjczNjMsMTMuODk5NHogTTIyLjMwMzcsMTMuMjUzOWMwLjQ1NywwLDAuODU2NC0wLjMxMDEsMC45Njg4LTAuNzUyOSYjMTA7JiM5OyYjOTsmIzk7YzAuMjI3NS0wLjg5MjEsMC41ODExLTEuNzQyMiwxLjA0OTgtMi41MjY0YzAuMjM1NC0wLjM5MzEsMC4xNzI5LTAuODk2LTAuMTUxNC0xLjIyMDJsLTAuODA3Ni0wLjc5MzVsMi4zMjIzLTIuMzM3NCYjMTA7JiM5OyYjOTsmIzk7bDAuODA3NiwwLjgwNzZjMC4zMjQyLDAuMzI0NywwLjgyODEsMC4zODYyLDEuMjE5NywwLjE1MTRjMC43ODUyLTAuNDY4OCwxLjYzNTctMC44MjIzLDIuNTI3My0xLjA0OTgmIzEwOyYjOTsmIzk7JiM5O2MwLjQ0MzQtMC4xMTI4LDAuNzUyOS0wLjUxMTcsMC43NTI5LTAuOTY4OGwtMC4wMTE3LTEuMTI4NGwzLjI5ODgtMC4wMTEyVjQuNTY0YzAsMC40NTcsMC4zMDk2LDAuODU2LDAuNzUyOSwwLjk2ODgmIzEwOyYjOTsmIzk7JiM5O2MwLjg5MjYsMC4yMjgsMS43NDIyLDAuNTgxNSwyLjUyNjQsMS4wNDk4YzAuMzkwNiwwLjIzNDQsMC44OTQ1LDAuMTczMywxLjIxOTctMC4xNTE0bDAuNzkzLTAuODA3NmwyLjMzNzksMi4zMjMybC0wLjgwNzYsMC44MDc2JiMxMDsmIzk7JiM5OyYjOTtjLTAuMzI0MiwwLjMyNDItMC4zODY3LDAuODI3MS0wLjE1MTQsMS4yMjAyYzAuNDY4OCwwLjc4NDIsMC44MjIzLDEuNjM0MywxLjA0OTgsMi41MjY0JiMxMDsmIzk7JiM5OyYjOTtjMC4xMTIzLDAuNDQyOSwwLjUxMTcsMC43NTI5LDAuOTY4OCwwLjc1MjlsMS4xMjc5LTAuMDExMmwwLjAxMTcsMy4yOTgzaC0xLjEzOTZjLTAuNDU3LDAtMC44NTY0LDAuMzEwMS0wLjk2ODgsMC43NTI5JiMxMDsmIzk7JiM5OyYjOTtjLTAuMjI3NSwwLjg5MjEtMC41ODExLDEuNzQyMi0xLjA0OTgsMi41MjY0Yy0wLjIzNTQsMC4zOTMxLTAuMTcyOSwwLjg5NiwwLjE1MTQsMS4yMjAybDAuODA3NiwwLjc5MzVsLTIuMzIzMiwyLjMzNzQmIzEwOyYjOTsmIzk7JiM5O2wtMC44MDc2LTAuODA3NmMtMC4zMjQyLTAuMzI1Mi0wLjgyNzEtMC4zODUzLTEuMjE5Ny0wLjE1MTRjLTAuNzg0MiwwLjQ2ODMtMS42MzM4LDAuODIxOC0yLjUyNjQsMS4wNDk4JiMxMDsmIzk7JiM5OyYjOTtjLTAuNDQzNCwwLjExMjgtMC43NTI5LDAuNTExNy0wLjc1MjksMC45Njg4bDAuMDEwNywxLjEyODRsLTMuMjk3OSwwLjAxMTJWMjUuMjMxYzAtMC40NTctMC4zMDk2LTAuODU2LTAuNzUyOS0wLjk2ODgmIzEwOyYjOTsmIzk7JiM5O2MtMC44OTE2LTAuMjI3NS0xLjc0MjItMC41ODExLTIuNTI3My0xLjA0OThjLTAuMTU5Mi0wLjA5NTItMC4zMzU5LTAuMTQxNi0wLjUxMjctMC4xNDE2Yy0wLjI1NzgsMC0wLjUxNDYsMC4xMDAxLTAuNzA3LDAuMjkzJiMxMDsmIzk7JiM5OyYjOTtsLTAuNzkzLDAuODA3NmwtMi4zMzY5LTIuMzIzMmwwLjgwNzYtMC44MDc2YzAuMzI0Mi0wLjMyNDIsMC4zODY3LTAuODI3MSwwLjE1MTQtMS4yMjAyJiMxMDsmIzk7JiM5OyYjOTtjLTAuNDY4OC0wLjc4NDItMC44MjIzLTEuNjM0My0xLjA0OTgtMi41MjY0Yy0wLjExMjMtMC40NDI5LTAuNTExNy0wLjc1MjktMC45Njg4LTAuNzUyOWwtMS4xMjg5LDAuMDExMmwtMC4wMTA3LTMuMjk4M0gyMi4zMDM3eiYjMTA7JiM5OyYjOTsmIzk7IE02LjI2MDcsMTUuODk5NGgxMi45MTQxdjAuNjUyOGMwLDEuMDk2NywwLjg5MjYsMS45ODg4LDEuOTg5MywxLjk4ODhoMC4zODk2YzAuMTgyNiwwLjU1NjIsMC40MDcyLDEuMDk2NywwLjY3MTksMS42MTY3JiMxMDsmIzk7JiM5OyYjOTtsLTAuMjc2NCwwLjI3NjRjLTAuMzc3LDAuMzc3LTAuNTg0LDAuODc4OS0wLjU4MywxLjQxMjZjMC4wMDEsMC41MzIyLDAuMjA5LDEuMDMxMywwLjU4MywxLjQwMTRsMi4zMzMsMi4zMzQmIzEwOyYjOTsmIzk7JiM5O2MwLjM3MywwLjM3NywwLjg3MjEsMC41ODUsMS40MDQzLDAuNTg2NGMwLjAwMiwwLDAuMDAyOSwwLDAuMDA0OSwwYzAuNTMyMiwwLDEuMDMyMi0wLjIwNywxLjQwODItMC41ODNsMC4yNzY0LTAuMjc2NCYjMTA7JiM5OyYjOTsmIzk7YzAuNTIwNSwwLjI2NDIsMS4wNjE1LDAuNDg4OCwxLjYxNzIsMC42NzE0djAuMzkwMWMwLDEuMDk2NywwLjg5MTYsMS45ODg4LDEuOTg4MywxLjk4ODhoMy4zMDk2JiMxMDsmIzk7JiM5OyYjOTtjMS4wOTY3LDAsMS45ODkzLTAuODkyMSwxLjk4OTMtMS45ODg4di0wLjM5MDFjMC41NTY2LTAuMTgzMSwxLjA5NjctMC40MDcyLDEuNjE2Mi0wLjY3MTRsMC4yNzY0LDAuMjc2NCYjMTA7JiM5OyYjOTsmIzk7YzAuMzc2LDAuMzc2LDAuODc2LDAuNTgzLDEuNDA4MiwwLjU4M2MwLjAwMiwwLDAuMDAyOSwwLDAuMDA0OSwwYzAuNTMyMi0wLjAwMTUsMS4wMzEzLTAuMjA5NSwxLjQwMDQtMC41ODNsMi4zMzUtMi4zMzQmIzEwOyYjOTsmIzk7JiM5O2MwLjM3Ny0wLjM3MzUsMC41ODUtMC44NzI2LDAuNTg1OS0xLjQwNDhjMC4wMDEtMC41MzM3LTAuMjA2MS0xLjAzNTYtMC41ODMtMS40MTI2bC0wLjI3NjQtMC4yNzY0JiMxMDsmIzk7JiM5OyYjOTtjMC4yNjQ2LTAuNTIsMC40ODkzLTEuMDYwNSwwLjY3MTktMS42MTY3aDAuMzg5NmMxLjA5NjcsMCwxLjk4ODMtMC44OTIxLDEuOTg4My0xLjk4ODh2LTAuNjUyOGgxMS42Mzg3JiMxMDsmIzk7JiM5OyYjOTtjMS43OTk4LDAsMy4yNjM3LDEuNDYyNCwzLjI2MzcsMy4yNjAzdjI2LjQzMjZIM1YxOS4xNTk3QzMsMTcuMzYxOCw0LjQ2MjksMTUuODk5NCw2LjI2MDcsMTUuODk5NHogTTM3LjI1NjgsNjAuNTY0NWgtMTAuNTAxJiMxMDsmIzk7JiM5OyYjOTt2LTUuNDcwN2gxMC41MDFWNjAuNTY0NXogTTU3LjczNjMsNTMuMDkzOEg2LjI2MDdDNC40NjI5LDUzLjA5MzgsMyw1MS42Mjk0LDMsNDkuODI5NnYtMi4yMzczaDU4djIuMjM3MyYjMTA7JiM5OyYjOTsmIzk7QzYxLDUxLjYyOTQsNTkuNTM2MSw1My4wOTM4LDU3LjczNjMsNTMuMDkzOHoiLz4mI3hhOwkJPHBhdGggZD0iTTMxLjU1MzcsNDkuNDc1MWMtMC40Nzk1LDAuMjczOS0wLjY0NjUsMC44ODQ4LTAuMzcyMSwxLjM2NDNsMC4wMDk4LDAuMDE3MWMwLjE4MzYsMC4zMjA4LDAuNTE0NiwwLjQ5NzYsMC44NTg0LDAuNDk3NiYjMTA7JiM5OyYjOTsmIzk7YzAuMTY5OSwwLDAuMzQxOC0wLjA0MzUsMC41MDEtMC4xMzM4YzAuNDc5NS0wLjI3NDQsMC42NDE2LTAuODkzNiwwLjM2NzItMS4zNzNTMzIuMDMyMiw0OS4yMDAyLDMxLjU1MzcsNDkuNDc1MXoiLz4mI3hhOwkJPHBhdGggZD0iTTIwLjcwNjEsNDEuNzI3MWMwLjUyMzQsMC4xNjg5LDEuMDg4OS0wLjEyMywxLjI1NjgtMC42NDg5bDAuNzI0Ny0yLjI3MzloMi4yNzcybDAuNzI0NywyLjI3MzkmIzEwOyYjOTsmIzk7JiM5O2MwLjEzNTcsMC40MjUzLDAuNTI5MywwLjY5NjgsMC45NTMxLDAuNjk2OGMwLjEwMDYsMCwwLjIwMzEtMC4wMTU2LDAuMzAzNy0wLjA0NzljMC41MjY0LTAuMTY3NSwwLjgxNjQtMC43MywwLjY0OTQtMS4yNTYzJiMxMDsmIzk7JiM5OyYjOTtsLTIuODE2NC04LjgzNTljLTAuMTMyOC0wLjQxNDYtMC41MTc2LTAuNjk2My0wLjk1MzEtMC42OTYzcy0wLjgyMDMsMC4yODE3LTAuOTUzMSwwLjY5NjNsLTIuODE2NCw4LjgzNTkmIzEwOyYjOTsmIzk7JiM5O0MxOS44ODk2LDQwLjk5NzEsMjAuMTc5Nyw0MS41NTk2LDIwLjcwNjEsNDEuNzI3MXogTTI0LjMyNzQsMzYuODA0MkgyMy4zMjVsMC41MDEyLTEuNTcyOEwyNC4zMjc0LDM2LjgwNDJ6Ii8+JiN4YTsJCTxwYXRoIGQ9Ik0zMi4yNjE3LDQxLjc3NDRjMC41NTI3LDAsMS0wLjQ0NzgsMS0xdi0zLjA5MjhoMS45NTMxYzEuODU3NCwwLDMuMzY4Mi0xLjUxMjcsMy4zNjgyLTMuMzcxNiYjMTA7JiM5OyYjOTsmIzk7cy0xLjUxMDctMy4zNzE2LTMuMzY4Mi0zLjM3MTZoLTIuOTUzMWMtMC41NTI3LDAtMSwwLjQ0NzgtMSwxdjguODM1OUMzMS4yNjE3LDQxLjMyNjcsMzEuNzA5LDQxLjc3NDQsMzIuMjYxNyw0MS43NzQ0eiYjMTA7JiM5OyYjOTsmIzk7IE0zNi41ODMsMzQuMzEwMWMwLDAuNzU2My0wLjYxMzMsMS4zNzE2LTEuMzY4MiwxLjM3MTZoLTEuOTUzMXYtMi43NDMyaDEuOTUzMUMzNS45Njk3LDMyLjkzODUsMzYuNTgzLDMzLjU1MzcsMzYuNTgzLDM0LjMxMDF6Ii8+JiN4YTsJCTxwYXRoIGQ9Ik00My4wNDc5LDQxLjc3NDRjMC41NTI3LDAsMS0wLjQ0NzgsMS0xdi04LjgzNTljMC0wLjU1MjItMC40NDczLTEtMS0xcy0xLDAuNDQ3OC0xLDF2OC44MzU5JiMxMDsmIzk7JiM5OyYjOTtDNDIuMDQ3OSw0MS4zMjY3LDQyLjQ5NTEsNDEuNzc0NCw0My4wNDc5LDQxLjc3NDR6Ii8+JiN4YTsJCTxwYXRoIGQ9Ik0zMi42MzQ4LDIxLjQ2NzNjMy42MjMsMCw2LjU3MTMtMi45NDYzLDYuNTcxMy02LjU2NzljMC0zLjYyMzUtMi45NDgyLTYuNTcxOC02LjU3MTMtNi41NzE4JiMxMDsmIzk7JiM5OyYjOTtjLTMuNjIxMSwwLTYuNTY3NCwyLjk0ODItNi41Njc0LDYuNTcxOEMyNi4wNjc0LDE4LjUyMSwyOS4wMTM3LDIxLjQ2NzMsMzIuNjM0OCwyMS40NjczeiBNMzIuNjM0OCwxMC4zMjc2JiMxMDsmIzk7JiM5OyYjOTtjMi41MjA1LDAsNC41NzEzLDIuMDUwOCw0LjU3MTMsNC41NzE4YzAsMi41MTg2LTIuMDUwOCw0LjU2NzktNC41NzEzLDQuNTY3OWMtMi41MTg2LDAtNC41Njc0LTIuMDQ5My00LjU2NzQtNC41Njc5JiMxMDsmIzk7JiM5OyYjOTtDMjguMDY3NCwxMi4zNzg0LDMwLjExNjIsMTAuMzI3NiwzMi42MzQ4LDEwLjMyNzZ6Ii8+JiN4YTsJPC9nPiYjeGE7PC9nPiYjeGE7PGcgaWQ9ImphdmEiPiYjeGE7PC9nPiYjeGE7PGcgaWQ9InhtbCI+JiN4YTs8L2c+JiN4YTs8ZyBpZD0ic2VjdXJpdHkiPiYjeGE7PC9nPiYjeGE7PGcgaWQ9ImFsZ29yaXRobSI+JiN4YTs8L2c+JiN4YTs8ZyBpZD0icGhwIj4mI3hhOzwvZz4mI3hhOzxnIGlkPSJlcm9yIj4mI3hhOzwvZz4mI3hhOzxnIGlkPSJidWciPiYjeGE7PC9nPiYjeGE7PGcgaWQ9ImNfeDJCX194MkJfIj4mI3hhOzwvZz4mI3hhOzxnIGlkPSJzZWFyY2giPiYjeGE7PC9nPiYjeGE7PGcgaWQ9ImJpbmFyeSI+JiN4YTs8L2c+JiN4YTs8ZyBpZD0iZGF0YWJhc2Vfc3FsIj4mI3hhOzwvZz4mI3hhOzwvc3ZnPg==;" parent="1" vertex="1"><mxGeometry x="979.27" y="520.09" width="100.77" height="99.15" as="geometry"/></mxCell><mxCell id="aqLwbfs4sxGYjvgtjAm0-2" value="" style="shape=image;verticalLabelPosition=bottom;labelBackgroundColor=#ffffff;verticalAlign=top;aspect=fixed;imageAspect=0;image=data:image/svg+xml,PHN2ZyB4bWxucz0iaHR0cDovL3d3dy53My5vcmcvMjAwMC9zdmciIHZpZXdCb3g9IjE0IDIgMTAwLjEwMDAwNjEwMzUxNTYyIDEyNC4xMDAwMDYxMDM1MTU2MiIgd2lkdGg9IjEwMC4xMDAwMDYxMDM1MTU2MiIgaGVpZ2h0PSIxMjQuMTAwMDA2MTAzNTE1NjIiPjxwYXRoIGZpbGw9IiM2NzYyQTYiIGQ9Ik0xMDIuMSAySDI1LjlDMTkuMyAyIDE0IDcuMyAxNCAxMy45djEwMC4zYzAgNi42IDUuMyAxMS45IDExLjkgMTEuOWg3Ni4zYzYuNiAwIDExLjktNS4zIDExLjktMTEuOVYxMy45QzExNCA3LjMgMTA4LjcgMiAxMDIuMSAyek0zNyAxMDguN1Y4MC41bDE0LjEgMTQuMUwzNyAxMDguN3ptNTMgLjNINzYuOWwuMS0uMlY1OS40czMuMS0xMS44LTM5LjcgNC44Yy0uMS4yLS4yLTQ1LjctLjItNDUuN2wxMy45LS4xdjI5LjRzMzktMTUuNCAzOSAxMS43VjEwOXptLTUuMi03M0g3MGM1LjMtNiAxMC4yLTE3IDEwLjItMTdoMTUuM3MtMi42IDctMTAuNyAxN3oiLz48L3N2Zz4=;" parent="1" vertex="1"><mxGeometry x="257.54" y="443.83" width="73.92" height="91.66" as="geometry"/></mxCell><mxCell id="aqLwbfs4sxGYjvgtjAm0-8" value="" style="shape=image;verticalLabelPosition=bottom;labelBackgroundColor=#ffffff;verticalAlign=top;aspect=fixed;imageAspect=0;image=https://pypi.org/static/images/logo-small.95de8436.svg;" parent="1" vertex="1"><mxGeometry x="975" y="933.85" width="104.26" height="91.63" as="geometry"/></mxCell><mxCell id="aqLwbfs4sxGYjvgtjAm0-9" value="&lt;font style=&quot;font-size: 29px&quot;&gt;&lt;b&gt;1&lt;/b&gt;&lt;/font&gt;" style="ellipse;whiteSpace=wrap;html=1;aspect=fixed;fillColor=#647687;strokeColor=#314354;fontColor=#ffffff;" parent="1" vertex="1"><mxGeometry x="344.34" y="680.1" width="50" height="50" as="geometry"/></mxCell><mxCell id="aqLwbfs4sxGYjvgtjAm0-10" value="&lt;font style=&quot;font-size: 29px&quot;&gt;&lt;b&gt;2&lt;/b&gt;&lt;/font&gt;" style="ellipse;whiteSpace=wrap;html=1;aspect=fixed;fillColor=#647687;strokeColor=#314354;fontColor=#ffffff;" parent="1" vertex="1"><mxGeometry x="1079.26" y="470.09000000000003" width="50" height="50" as="geometry"/></mxCell><mxCell id="aqLwbfs4sxGYjvgtjAm0-11" value="&lt;font style=&quot;font-size: 29px&quot;&gt;&lt;b&gt;3&lt;/b&gt;&lt;/font&gt;" style="ellipse;whiteSpace=wrap;html=1;aspect=fixed;fillColor=#647687;strokeColor=#314354;fontColor=#ffffff;" parent="1" vertex="1"><mxGeometry x="1080.04" y="883.85" width="50" height="50" as="geometry"/></mxCell></root></mxGraphModel></diagram></mxfile>